<svg id="pfade" xmlns="http://www.w3.org/2000/svg" viewBox="0 0 80 80">
  <defs>
    <style>
      .cls-1, .cls-2, .cls-3 {
        fill: none;
        stroke: #000000;
      }

      .cls-1, .cls-2 {
        stroke-miterlimit: 10;
      }

      .cls-1, .cls-3 {
        stroke-width: 2px;
      }

      .cls-3 {
        stroke-linecap: round;
        stroke-linejoin: round;
      }
    </style>
  </defs>
  <path class="cls-1" d="M45.2696,19.5503,19.8381,44.9526c-2.6402,2.6403-1.3779,8.1837,2.8195,12.3811,4.1976,4.1975,9.7412,5.46,12.3815,2.8201L60.4579,34.7347"/>
  <path class="cls-1" d="M45.255,19.536c2.6401-2.6405,8.1837-1.3782,12.3811,2.8192,4.1975,4.1976,5.4599,9.7412,2.8199,12.3815"/>
  <path class="cls-1" d="M42.3071,32.5044l-9.5153,9.5152c-.8512.8512-.4442,2.6383.909,3.9916,1.3533,1.3534,3.1405,1.7604,3.9918.9092l9.5153-9.5154"/>
  <path class="cls-2" d="M50.7661,33.7456c3.6993,2.4884,7.7613,2.9195,9.9064.7744"/>
  <path class="cls-2" d="M45.4717,19.3193c-2.0683,2.068-1.742,5.9175.5141,9.5062"/>
  <path class="cls-1" d="M47.2081,37.4049c-.8514.8514-2.6384.4441-3.9918-.9091-1.3532-1.3534-1.7602-3.1402-.9091-3.9918.8512-.8512,2.6382-.444,3.9915.9094C47.6521,34.7668,48.0592,36.5537,47.2081,37.4049Z"/>
  <g>
    <line class="cls-3" x1="54.4623" y1="30.164" x2="54.4623" y2="25.2497"/>
    <line class="cls-3" x1="54.4623" y1="25.2497" x2="49.5478" y2="25.2497"/>
    <line class="cls-3" x1="54.0528" y1="25.659" x2="45.0061" y2="34.7058"/>
  </g>
  <path class="cls-1" d="M33.5459,41.2644c-1.955-1.0248-3.8078-1.1692-4.7845-.1925-1.4738,1.4737-.3946,4.9425,2.4106,7.7478,2.8051,2.805,6.274,3.8841,7.7478,2.4106,1.0367-1.0367.8105-3.0599-.3911-5.1455"/>
  <path class="cls-1" d="M28.7614,41.0719l-5.3372,5.3369c-1.4738,1.474-.3946,4.9427,2.4107,7.7479,2.8051,2.8052,6.2739,3.8843,7.7478,2.4108l5.3371-5.3372"/>
</svg>
