<svg xmlns="http://www.w3.org/2000/svg" width="320" height="120" viewBox="0 0 320 120" role="img" aria-label="Pneumatic cylinder open">
  <defs>
    <linearGradient id="bodyGradOpen" x1="0" y1="0" x2="0" y2="1">
      <stop offset="0%" stop-color="#d9dee3"/>
      <stop offset="50%" stop-color="#aab4be"/>
      <stop offset="100%" stop-color="#87919b"/>
    </linearGradient>
    <linearGradient id="metalGradOpen" x1="0" y1="0" x2="0" y2="1">
      <stop offset="0%" stop-color="#f6f8fa"/>
      <stop offset="50%" stop-color="#c9d1d8"/>
      <stop offset="100%" stop-color="#9aa5ae"/>
    </linearGradient>
  </defs>
  <g>
    <rect x="8" y="51" width="18" height="18" rx="3" fill="#6f7a84" stroke="#4f5961" stroke-width="2"/>
    <circle cx="17" cy="60" r="5" fill="#1f252b"/>
  </g>
  <rect x="24" y="38" width="22" height="44" rx="4" fill="url(#metalGradOpen)" stroke="#5d6770" stroke-width="2"/>
  <rect x="46" y="28" width="170" height="64" rx="10" fill="url(#bodyGradOpen)" stroke="#5b6670" stroke-width="2.5"/>
  <rect x="56" y="36" width="150" height="10" rx="4" fill="#eef2f5" opacity="0.5"/>
  <line x1="131" y1="30" x2="131" y2="90" stroke="#707b85" stroke-width="1.5" opacity="0.35"/>
  <rect x="216" y="34" width="20" height="52" rx="4" fill="url(#metalGradOpen)" stroke="#5d6770" stroke-width="2"/>
  <rect x="232" y="54" width="56" height="12" rx="3" fill="#d9e0e6" stroke="#717b84" stroke-width="1.5"/>
  <g>
    <rect x="288" y="50" width="26" height="20" rx="3" fill="#737e88" stroke="#525b63" stroke-width="2"/>
    <circle cx="305" cy="60" r="6" fill="#22282e"/>
  </g>
  <rect x="82" y="26" width="6" height="68" fill="#59636c" opacity="0.65"/>
  <rect x="174" y="26" width="6" height="68" fill="#59636c" opacity="0.65"/>
</svg>
